<svg width="1080" height="1080" viewBox="0 0 1080 1080" fill="none" xmlns="http://www.w3.org/2000/svg">
<path d="M460.5 376.704C453 385.204 422.5 466.5 394 466.5C365.5 466.5 337.5 456.5 337.5 400.5C337.5 367 357.044 349.691 372.5 346C406 338 467.5 378 504 409C551.5 449.343 501.105 505.53 469 530.5C451 544.5 418.833 558 410 560C476.5 560 481.5 560 508 560C534.5 560 552.691 583.5 543.5 610.5C537.883 627 487.5 708 469 719C452.239 728.966 412.003 734.719 399.5 708C363 630 452.5 638 452.5 638C452.5 638 675.5 716.5 764 698" stroke="black" stroke-width="8"/>
</svg>
