<svg width="1080" height="1080" viewBox="0 0 1080 1080" fill="none" xmlns="http://www.w3.org/2000/svg">
<path d="M456.5 445.5C439 467 395.5 507 361.5 495C319 480 294.5 410 347.5 369.5C389.9 337.1 424.833 356 437 369.5C453 427.5 486.9 546.2 494.5 557C504 570.5 623.5 427.5 661.5 451.5C707.017 480.248 746.656 584.932 720.5 614.5C697.5 640.5 637.713 646 623.5 625.5C597.5 588 543.276 422.551 555.5 392.5C567.5 363 637 341 661.5 341C673.5 341 753.5 382.5 791 480C825.039 568.5 804.5 693.5 739.5 720C674.5 746.5 517.5 695 502.5 676.5" stroke="black" stroke-width="8"/>
</svg>
